<svg width="606" height="501" viewBox="0 0 606 501" fill="none" xmlns="http://www.w3.org/2000/svg">
<g clip-path="url(#clip0_65_239)">
<path d="M345.059 244.974C358.695 244.974 369.75 233.206 369.75 218.69C369.75 204.174 358.695 192.406 345.059 192.406C331.423 192.406 320.369 204.174 320.369 218.69C320.369 233.206 331.423 244.974 345.059 244.974Z" fill="#E6E6E6"/>
<path d="M405.571 252.466L379.769 224.999C381.747 221.724 383.087 218.06 383.71 214.224C384.333 210.388 384.227 206.457 383.397 202.666C382.568 198.874 381.031 195.298 378.88 192.15C376.728 189.002 374.004 186.345 370.871 184.338C364.97 180.586 357.961 179.329 351.231 180.817C344.501 182.306 338.541 186.43 334.533 192.374C330.844 197.88 329.073 204.581 329.523 211.327C329.973 218.072 332.616 224.44 336.999 229.336C341.381 234.232 347.229 237.349 353.537 238.152C359.844 238.955 366.218 237.394 371.561 233.737L397.363 261.204C398.452 262.361 399.928 263.011 401.467 263.011C403.005 263.011 404.481 262.36 405.569 261.201C406.657 260.043 407.268 258.472 407.269 256.834C407.269 255.196 406.658 253.625 405.571 252.466ZM370.598 223.974C367.401 227.377 363.194 229.495 358.695 229.967C354.195 230.439 349.681 229.235 345.922 226.561C342.162 223.887 339.39 219.909 338.077 215.303C336.765 210.697 336.993 205.749 338.723 201.302C340.454 196.855 343.579 193.185 347.566 190.916C351.554 188.647 356.157 187.92 360.591 188.859C365.026 189.798 369.017 192.345 371.886 196.065C374.754 199.786 376.322 204.45 376.322 209.263C376.325 211.996 375.821 214.702 374.839 217.227C373.856 219.751 372.415 222.044 370.598 223.974Z" fill="#3F3D56"/>
<path d="M592.606 292.982C658.592 370.664 467.311 482.615 312.751 482.615C158.192 482.615 51.2605 395.873 32.8963 292.982C-11.6307 43.506 412.277 -115.059 312.751 103.348C167.681 421.703 540.641 231.805 592.606 292.982Z" fill="#E6E6E6"/>
<path d="M563 311.367C628.985 389.049 437.704 501 283.145 501C128.585 501 21.6541 414.258 3.28982 311.367C-41.2372 61.891 382.671 -96.6744 283.145 121.733C138.074 440.088 511.035 250.19 563 311.367Z" fill="#3F3D56"/>
<path d="M92.2699 129.237C45.9681 127.066 10.0679 116.434 10.5395 105.031C10.8223 98.1949 23.9261 92.6975 46.4909 89.9494C46.5717 89.939 46.6535 89.9457 46.7319 89.9691C46.8102 89.9925 46.8834 90.0322 46.9472 90.0858C47.0111 90.1395 47.0643 90.2061 47.1039 90.2817C47.1435 90.3574 47.1686 90.4406 47.1779 90.5266C47.1871 90.6127 47.1803 90.6998 47.1578 90.783C47.1353 90.8662 47.0975 90.9439 47.0467 91.0115C46.9959 91.0791 46.933 91.1354 46.8616 91.177C46.7903 91.2186 46.712 91.2448 46.6311 91.2541C25.375 93.8431 12.0178 99.1444 11.7719 105.089C11.3454 115.401 48.2337 125.858 92.3241 127.925C136.415 129.991 174.023 123.026 174.45 112.714C174.697 106.744 161.746 100.196 140.651 95.6237C140.571 95.6067 140.495 95.5732 140.428 95.525C140.361 95.4769 140.303 95.415 140.258 95.343C140.213 95.2711 140.182 95.1904 140.167 95.1056C140.151 95.0208 140.151 94.9335 140.167 94.8489C140.184 94.7642 140.215 94.6838 140.261 94.6122C140.306 94.5406 140.365 94.4793 140.432 94.4317C140.5 94.3842 140.576 94.3513 140.656 94.335C140.735 94.3187 140.817 94.3193 140.897 94.3368C163.287 99.1895 175.966 105.909 175.682 112.772C175.211 124.175 138.572 131.407 92.2699 129.237Z" fill="#089262"/>
<path d="M51.147 131.146C55.0204 138.98 60.7582 145.592 67.7864 150.323C74.8146 155.054 82.8866 157.738 91.1949 158.105C99.5032 158.472 107.756 156.51 115.129 152.415C122.501 148.32 128.734 142.237 133.204 134.772C105.81 135.165 78.4161 133.955 51.147 131.146Z" fill="#089262"/>
<path d="M138.326 120.96C140.657 113.517 141.328 105.598 140.288 97.8306C139.247 90.0631 136.522 82.6601 132.329 76.2075C128.135 69.7549 122.589 64.4298 116.128 60.6537C109.667 56.8776 102.469 54.7541 95.1043 54.4514C87.7393 54.1486 80.4091 55.6748 73.694 58.9093C66.9789 62.1437 61.0631 66.9976 56.4148 73.0867C51.7666 79.1759 48.5135 86.3332 46.913 93.9921C45.3125 101.651 45.4085 109.601 47.1935 117.214C77.2909 122.653 107.924 123.912 138.326 120.96Z" fill="#089262"/>
<path d="M104.137 87.0665C107.203 87.0665 109.688 84.4207 109.688 81.157C109.688 77.8933 107.203 75.2476 104.137 75.2476C101.071 75.2476 98.5857 77.8933 98.5857 81.157C98.5857 84.4207 101.071 87.0665 104.137 87.0665Z" fill="white"/>
<path d="M75.5665 110.042C80.6762 110.042 84.8185 105.632 84.8185 100.192C84.8185 94.7529 80.6762 90.3433 75.5665 90.3433C70.4567 90.3433 66.3145 94.7529 66.3145 100.192C66.3145 105.632 70.4567 110.042 75.5665 110.042Z" fill="white"/>
<path d="M215.205 100.394C218.612 100.394 221.373 97.4541 221.373 93.8278C221.373 90.2016 218.612 87.2619 215.205 87.2619C211.799 87.2619 209.037 90.2016 209.037 93.8278C209.037 97.4541 211.799 100.394 215.205 100.394Z" fill="#089262"/>
<path d="M75.8078 301.316C77.8517 301.316 79.5086 299.552 79.5086 297.376C79.5086 295.2 77.8517 293.436 75.8078 293.436C73.7639 293.436 72.1069 295.2 72.1069 297.376C72.1069 299.552 73.7639 301.316 75.8078 301.316Z" fill="#E6E6E6"/>
<path d="M334.865 436.576C336.909 436.576 338.566 434.813 338.566 432.637C338.566 430.461 336.909 428.697 334.865 428.697C332.821 428.697 331.164 430.461 331.164 432.637C331.164 434.813 332.821 436.576 334.865 436.576Z" fill="#E6E6E6"/>
<path d="M93.6952 225.149C94.7171 225.149 95.5456 224.267 95.5456 223.179C95.5456 222.091 94.7171 221.209 93.6952 221.209C92.6732 221.209 91.8447 222.091 91.8447 223.179C91.8447 224.267 92.6732 225.149 93.6952 225.149Z" fill="#E6E6E6"/>
<path d="M246.662 372.229C247.684 372.229 248.512 371.347 248.512 370.259C248.512 369.171 247.684 368.289 246.662 368.289C245.64 368.289 244.812 369.171 244.812 370.259C244.812 371.347 245.64 372.229 246.662 372.229Z" fill="#E6E6E6"/>
<path d="M524.84 353.187C525.862 353.187 526.69 352.305 526.69 351.218C526.69 350.13 525.862 349.248 524.84 349.248C523.818 349.248 522.989 350.13 522.989 351.218C522.989 352.305 523.818 353.187 524.84 353.187Z" fill="#E6E6E6"/>
<path d="M437.87 411.625C438.892 411.625 439.721 410.743 439.721 409.656C439.721 408.568 438.892 407.686 437.87 407.686C436.848 407.686 436.02 408.568 436.02 409.656C436.02 410.743 436.848 411.625 437.87 411.625Z" fill="#E6E6E6"/>
<path d="M347.201 340.712C348.223 340.712 349.051 339.83 349.051 338.742C349.051 337.654 348.223 336.772 347.201 336.772C346.179 336.772 345.35 337.654 345.35 338.742C345.35 339.83 346.179 340.712 347.201 340.712Z" fill="#E6E6E6"/>
<path d="M230.008 146.356C231.03 146.356 231.859 145.474 231.859 144.386C231.859 143.299 231.03 142.417 230.008 142.417C228.986 142.417 228.158 143.299 228.158 144.386C228.158 145.474 228.986 146.356 230.008 146.356Z" fill="#E6E6E6"/>
<path d="M244.812 49.1786C245.834 49.1786 246.662 48.2967 246.662 47.2088C246.662 46.1208 245.834 45.2389 244.812 45.2389C243.79 45.2389 242.961 46.1208 242.961 47.2088C242.961 48.2967 243.79 49.1786 244.812 49.1786Z" fill="#E6E6E6"/>
<path d="M236.176 458.244C237.198 458.244 238.027 457.362 238.027 456.275C238.027 455.187 237.198 454.305 236.176 454.305C235.154 454.305 234.326 455.187 234.326 456.275C234.326 457.362 235.154 458.244 236.176 458.244Z" fill="#E6E6E6"/>
<path d="M144.89 416.878C145.912 416.878 146.74 415.996 146.74 414.908C146.74 413.82 145.912 412.938 144.89 412.938C143.868 412.938 143.039 413.82 143.039 414.908C143.039 415.996 143.868 416.878 144.89 416.878Z" fill="#E6E6E6"/>
<path d="M434.17 345.965C435.192 345.965 436.02 345.083 436.02 343.995C436.02 342.907 435.192 342.025 434.17 342.025C433.148 342.025 432.319 342.907 432.319 343.995C432.319 345.083 433.148 345.965 434.17 345.965Z" fill="#E6E6E6"/>
<path d="M91.5173 153.514C94.5831 153.514 97.0685 150.868 97.0685 147.604C97.0685 144.341 94.5831 141.695 91.5173 141.695C88.4514 141.695 85.9661 144.341 85.9661 147.604C85.9661 150.868 88.4514 153.514 91.5173 153.514Z" fill="white"/>
<path d="M217.056 238.281C217.056 255.931 191.422 297.058 183.931 308.7C183.704 309.052 183.401 309.34 183.047 309.539C182.693 309.738 182.298 309.842 181.898 309.842C181.497 309.842 181.103 309.738 180.749 309.539C180.395 309.34 180.091 309.052 179.865 308.7C172.374 297.058 146.74 255.931 146.74 238.281C146.74 233.366 147.65 228.5 149.416 223.959C151.183 219.418 153.773 215.292 157.038 211.817C160.302 208.341 164.178 205.585 168.444 203.704C172.709 201.823 177.281 200.855 181.898 200.855C186.515 200.855 191.087 201.823 195.352 203.704C199.618 205.585 203.493 208.341 206.758 211.817C210.023 215.292 212.613 219.418 214.379 223.959C216.146 228.5 217.056 233.366 217.056 238.281Z" fill="white"/>
<path d="M181.898 254.696C191.777 254.696 199.785 246.171 199.785 235.655C199.785 225.138 191.777 216.613 181.898 216.613C172.019 216.613 164.01 225.138 164.01 235.655C164.01 246.171 172.019 254.696 181.898 254.696Z" fill="#089262"/>
<path d="M181.589 330.206C193.001 330.206 202.252 328.295 202.252 325.938C202.252 323.581 193.001 321.67 181.589 321.67C170.178 321.67 160.927 323.581 160.927 325.938C160.927 328.295 170.178 330.206 181.589 330.206Z" fill="white"/>
<path d="M503.837 208.748C503.68 209.071 503.548 209.407 503.441 209.752L473.968 218.469L468.657 212.936L459.766 220.378L468.274 231.145C468.961 232.015 469.895 232.624 470.935 232.881C471.975 233.138 473.066 233.029 474.043 232.57L505.88 217.609C506.96 218.407 508.243 218.836 509.557 218.839C510.872 218.842 512.157 218.419 513.24 217.626C514.324 216.833 515.154 215.708 515.622 214.4C516.09 213.092 516.173 211.663 515.86 210.304C515.546 208.944 514.851 207.719 513.868 206.79C512.884 205.861 511.658 205.274 510.353 205.105C509.048 204.936 507.725 205.194 506.561 205.845C505.397 206.496 504.447 207.508 503.837 208.748H503.837Z" fill="#FFB8B8"/>
<path d="M472.93 218.98L461.868 228.146C461.553 228.407 461.189 228.593 460.801 228.69C460.413 228.788 460.009 228.795 459.618 228.712C459.227 228.628 458.857 228.456 458.534 228.207C458.211 227.958 457.943 227.638 457.746 227.268L450.871 214.315C449.626 212.593 449.074 210.416 449.335 208.261C449.596 206.107 450.649 204.15 452.263 202.82C453.878 201.491 455.921 200.897 457.946 201.17C459.971 201.442 461.812 202.558 463.065 204.273L473.142 214.512C473.431 214.805 473.656 215.161 473.804 215.555C473.952 215.95 474.017 216.374 473.997 216.798C473.977 217.222 473.871 217.636 473.687 218.013C473.503 218.389 473.245 218.719 472.93 218.98V218.98Z" fill="#089262"/>
<path d="M506.663 204.413L517.881 209.786C518.351 210.011 518.718 210.425 518.9 210.938C519.083 211.45 519.067 212.019 518.856 212.52L517.528 215.662C517.684 215.738 517.806 215.876 517.866 216.047C517.927 216.217 517.922 216.407 517.852 216.574L517.321 217.831C517.25 217.997 517.12 218.127 516.96 218.192C516.8 218.256 516.622 218.251 516.465 218.176L515.934 219.434C516.09 219.509 516.212 219.647 516.273 219.818C516.333 219.989 516.328 220.178 516.258 220.345L515.727 221.602C515.656 221.768 515.526 221.898 515.366 221.963C515.206 222.028 515.028 222.022 514.871 221.948L507.699 238.919C507.487 239.419 507.098 239.809 506.616 240.003C506.135 240.198 505.6 240.181 505.13 239.956L493.912 234.583C493.442 234.358 493.076 233.943 492.893 233.431C492.71 232.918 492.726 232.349 492.938 231.849L504.095 205.45C504.306 204.95 504.695 204.56 505.177 204.365C505.659 204.17 506.193 204.188 506.663 204.413Z" fill="#3F3D56"/>
<path d="M495.949 232.911L504.948 237.225C505.399 237.44 505.912 237.456 506.374 237.27C506.836 237.084 507.21 236.711 507.415 236.233L511.572 226.391L513.015 222.979L516.777 214.074C516.978 213.595 516.993 213.051 516.818 212.56C516.644 212.069 516.294 211.672 515.845 211.455L513.015 210.097L506.839 207.14C506.388 206.926 505.876 206.911 505.414 207.098C504.953 207.286 504.581 207.66 504.379 208.14L500.74 216.748L496.596 226.549L495.016 230.292C494.815 230.771 494.8 231.315 494.974 231.806C495.149 232.297 495.5 232.694 495.949 232.911Z" fill="#F2F2F2"/>
<path d="M477.144 354.858L484.706 354.858L488.304 323.808L477.143 323.809L477.144 354.858Z" fill="#FFB8B8"/>
<path d="M475.215 352.23L490.107 352.229H490.108C491.354 352.229 492.588 352.491 493.739 352.998C494.891 353.506 495.937 354.25 496.818 355.188C497.7 356.127 498.399 357.24 498.876 358.466C499.353 359.692 499.598 361.005 499.598 362.332V362.66L475.216 362.661L475.215 352.23Z" fill="#2F2E41"/>
<path d="M496.881 352.889L504.443 352.888L508.041 321.838L496.88 321.839L496.881 352.889Z" fill="#FFB8B8"/>
<path d="M494.953 350.26L509.845 350.26H509.845C511.092 350.26 512.326 350.521 513.477 351.029C514.629 351.536 515.675 352.281 516.556 353.219C517.437 354.157 518.137 355.27 518.613 356.496C519.09 357.722 519.336 359.036 519.336 360.362V360.691L494.953 360.692L494.953 350.26Z" fill="#2F2E41"/>
<path d="M443.225 281.998C444.836 287.082 447.892 291.507 451.969 294.661C456.047 297.815 460.945 299.542 465.985 299.602L466.367 299.608C470.271 299.727 474.854 298.387 479.351 296.463C488.233 292.661 496.763 286.575 499.027 284.9L495.19 324.159L493.636 340.075C493.597 340.487 493.639 340.903 493.76 341.296C493.881 341.689 494.078 342.051 494.338 342.359C494.598 342.666 494.916 342.912 495.271 343.081C495.626 343.25 496.01 343.337 496.399 343.338H505.978C506.592 343.339 507.189 343.122 507.676 342.723C508.162 342.324 508.511 341.765 508.667 341.132L524.482 277.015C524.956 275.095 524.995 273.084 524.593 271.146C524.192 269.208 523.363 267.399 522.175 265.87C520.987 264.341 519.474 263.135 517.761 262.352C516.048 261.569 514.185 261.232 512.325 261.368L479.474 263.764L481.768 253.994L452.446 251.919L452.36 251.985C451.656 252.53 450.972 253.101 450.318 253.698C448.683 255.17 447.234 256.861 446.006 258.728C443.81 262.079 442.41 265.946 441.925 269.999C441.441 274.052 441.887 278.169 443.225 281.998Z" fill="#2F2E41"/>
<path d="M443.225 281.998C444.836 287.082 447.892 291.507 451.969 294.661C456.047 297.815 460.945 299.541 465.985 299.602C470.804 297.005 475.455 294.068 479.906 290.81L479.351 296.463L474.515 345.984C474.476 346.396 474.518 346.812 474.639 347.206C474.76 347.599 474.957 347.961 475.217 348.268C475.477 348.576 475.795 348.822 476.15 348.99C476.505 349.159 476.89 349.247 477.278 349.248H486.857C487.471 349.248 488.068 349.032 488.555 348.633C489.042 348.234 489.39 347.674 489.546 347.042L495.19 324.159L505.361 282.924C505.835 281.005 505.874 278.993 505.473 277.055C505.071 275.117 504.242 273.309 503.054 271.78C501.866 270.25 500.353 269.044 498.64 268.261C496.927 267.478 495.064 267.141 493.204 267.277L460.353 269.674L462.648 259.903L446.006 258.728C443.81 262.079 442.41 265.946 441.925 269.999C441.441 274.051 441.887 278.169 443.225 281.998Z" fill="#2F2E41"/>
<path d="M450.276 255.963L450.055 255.935L444.939 229.155C444.895 228.923 440.712 205.824 453.535 193.748L453.758 192.096C453.815 191.673 453.958 191.268 454.176 190.909C454.395 190.551 454.683 190.247 455.023 190.019C455.362 189.79 455.744 189.643 456.142 189.587C456.54 189.531 456.944 189.567 457.328 189.694L469.408 193.683C470.091 193.907 470.667 194.404 471.014 195.07C471.361 195.736 471.453 196.52 471.27 197.256L470.095 202.011C471.724 204.046 490.891 228.611 484.214 247.537L481.224 259.981L450.276 255.963Z" fill="#089262"/>
<path d="M500.434 235.063C500.146 235.257 499.871 235.474 499.615 235.713L470.071 227.271L468.14 219.632L456.929 221.228L459.114 235.105C459.291 236.226 459.804 237.256 460.577 238.04C461.35 238.824 462.341 239.32 463.402 239.453L497.962 243.799C498.511 245.071 499.411 246.135 500.542 246.849C501.673 247.563 502.981 247.894 504.293 247.797C505.604 247.701 506.857 247.181 507.885 246.308C508.912 245.435 509.666 244.25 510.045 242.909C510.424 241.569 510.411 240.138 510.008 238.806C509.604 237.474 508.829 236.304 507.786 235.452C506.743 234.6 505.48 234.107 504.167 234.037C502.854 233.968 501.552 234.326 500.434 235.063H500.434Z" fill="#FFB8B8"/>
<path d="M468.933 227.149L455.03 229.055C454.634 229.109 454.232 229.072 453.851 228.946C453.471 228.82 453.12 228.608 452.823 228.325C452.526 228.041 452.289 227.693 452.13 227.304C451.971 226.915 451.893 226.493 451.9 226.069L452.165 211.194C451.916 209.037 452.48 206.864 453.734 205.15C454.988 203.436 456.829 202.321 458.854 202.049C460.878 201.778 462.922 202.373 464.535 203.703C466.149 205.033 467.201 206.99 467.461 209.145L471.25 223.416C471.358 223.824 471.383 224.253 471.321 224.672C471.26 225.092 471.115 225.493 470.895 225.847C470.675 226.201 470.386 226.501 470.047 226.725C469.709 226.95 469.329 227.094 468.933 227.149Z" fill="#089262"/>
<path d="M465.02 186.059C473.386 186.059 480.169 178.839 480.169 169.932C480.169 161.026 473.386 153.805 465.02 153.805C456.653 153.805 449.87 161.026 449.87 169.932C449.87 178.839 456.653 186.059 465.02 186.059Z" fill="#FFB8B8"/>
<path d="M464.223 171.279L462.326 167.602C458.733 183.185 465.079 196.081 465.079 196.081L440.449 183.868L440.683 179.534L438.246 182.479L434.744 180.424L434.282 177.613L431.638 178.311L441.287 159.671C450.652 141.934 464.266 148.706 464.266 148.706C485.926 147.61 483.28 170.358 483.28 170.358L464.223 171.279Z" fill="#2F2E41"/>
<path d="M291.772 291.459C295.265 289.075 291.017 275.387 282.285 260.886C273.552 246.385 263.641 236.562 260.148 238.945C256.655 241.329 260.903 255.017 269.636 269.518C278.368 284.019 288.279 293.843 291.772 291.459Z" fill="#3F3D56"/>
</g>
<defs>
<clipPath id="clip0_65_239">
<rect width="606" height="501" fill="white"/>
</clipPath>
</defs>
</svg>
