<svg width="633" height="945" viewBox="0 0 633 945" fill="none" xmlns="http://www.w3.org/2000/svg">
<path d="M0.5 0C0.5 0 5.6102 59.6002 31.5 82C67.0872 112.79 152 82 152 82C152 82 110.732 119.158 108 151C102.112 219.628 292.098 104.724 283 173C277.672 212.979 217.582 208.056 212 248C202.392 316.754 367.681 198.432 389 264.5C399.637 297.463 352.536 325.218 374.5 352C394.929 376.91 456.5 361 456.5 361C456.5 361 496.547 374.869 511 395.5C524.505 414.777 513.088 434.002 525.5 454C536.728 472.09 566 490.5 566 490.5C566 490.5 515.917 529.172 511 565C505.868 602.396 511 627 547.5 654.5C584 682 559.185 734.237 525.5 758.5C484.614 787.95 439.681 681.43 403.5 716.5C379.597 739.669 407.219 772.639 389 800.5C348.167 862.944 234.304 714.772 199 780.5C177.339 820.829 253.95 878.674 212 897C173.887 913.65 167.836 838.1 126.5 833.5C86.4926 829.048 58.5042 843.647 31.5 873.5C11.2038 895.937 0.5 944.5 0.5 944.5H633V0H0.5Z" fill="#FFFDFD"/>
</svg>
