<svg width="520" height="367" viewBox="0 0 520 367" fill="none" xmlns="http://www.w3.org/2000/svg">
<g clip-path="url(#clip0_36_8)">
<path d="M316.276 173.67C314.663 173.668 313.11 173.074 311.934 172.008C310.757 170.943 310.044 169.486 309.938 167.932L308.994 154.02C308.884 152.396 309.447 150.795 310.559 149.571C311.672 148.347 313.242 147.599 314.926 147.493L427.842 140.355C431.435 140.13 434.973 141.292 437.679 143.585C440.385 145.877 442.037 149.113 442.273 152.581C442.508 156.049 441.307 159.465 438.934 162.079C436.561 164.693 433.209 166.29 429.617 166.52L316.701 173.657C316.559 173.666 316.417 173.67 316.276 173.67Z" fill="#089262"/>
<path d="M338.541 175.464C336.897 175.461 335.316 174.844 334.132 173.743C332.948 172.641 332.251 171.139 332.188 169.553L331.383 148.775C331.352 147.969 331.485 147.165 331.776 146.409C332.067 145.654 332.509 144.96 333.077 144.369C333.645 143.778 334.328 143.301 335.088 142.965C335.847 142.629 336.667 142.441 337.502 142.411L430.356 139.061C432.042 139 433.683 139.588 434.92 140.696C436.157 141.803 436.887 143.34 436.95 144.967L437.754 165.745C437.786 166.551 437.652 167.355 437.361 168.111C437.071 168.866 436.629 169.56 436.061 170.151C435.492 170.742 434.809 171.219 434.05 171.555C433.291 171.891 432.47 172.079 431.635 172.109L338.782 175.459C338.701 175.462 338.621 175.464 338.541 175.464Z" fill="#2F2E41"/>
<path d="M447.351 367H432.907C431.221 366.998 429.604 366.351 428.412 365.2C427.219 364.049 426.548 362.488 426.546 360.86V244.668C426.548 243.04 427.219 241.479 428.412 240.328C429.604 239.177 431.221 238.53 432.907 238.528H447.351C449.037 238.53 450.654 239.177 451.846 240.328C453.039 241.479 453.71 243.04 453.712 244.668V360.86C453.71 362.488 453.039 364.049 451.846 365.2C450.654 366.351 449.037 366.998 447.351 367Z" fill="#2F2E41"/>
<path d="M411.087 367H396.643C394.957 366.998 393.34 366.351 392.147 365.2C390.955 364.049 390.284 362.488 390.282 360.86V244.668C390.284 243.04 390.955 241.479 392.147 240.328C393.34 239.177 394.957 238.53 396.643 238.528H411.087C412.773 238.53 414.39 239.177 415.582 240.328C416.775 241.479 417.445 243.04 417.447 244.668V360.86C417.445 362.488 416.775 364.049 415.582 365.2C414.39 366.351 412.773 366.998 411.087 367Z" fill="#2F2E41"/>
<path d="M425.414 117.268C452.977 117.268 475.322 95.7009 475.322 69.0962C475.322 42.4916 452.977 20.9243 425.414 20.9243C397.851 20.9243 375.507 42.4916 375.507 69.0962C375.507 95.7009 397.851 117.268 425.414 117.268Z" fill="#089262"/>
<path d="M398.399 85.5438C396.794 85.0347 395.32 84.1996 394.077 83.0949C393.253 82.3061 392.618 81.353 392.217 80.3024C391.815 79.2518 391.656 78.1291 391.751 77.0129C391.803 76.2177 392.045 75.4449 392.458 74.7549C392.871 74.0649 393.443 73.4764 394.131 73.0354C395.916 71.9303 398.303 71.9271 400.733 72.9609L400.641 54.1552L402.598 54.1462L402.706 76.2543L401.198 75.3387C399.45 74.2788 396.952 73.5327 395.188 74.6255C394.752 74.9143 394.391 75.2962 394.132 75.7416C393.874 76.187 393.726 76.6839 393.699 77.1937C393.633 78.0251 393.753 78.8605 394.052 79.643C394.35 80.4255 394.82 81.1368 395.429 81.7284C397.59 83.721 400.743 84.3441 404.338 84.9009L404.028 86.766C402.118 86.5217 400.234 86.1127 398.399 85.5438Z" fill="#2F2E41"/>
<path d="M380.467 53.2071L380.211 55.0797L390.661 56.4118L390.917 54.5392L380.467 53.2071Z" fill="#2F2E41"/>
<path d="M413.452 57.4087L413.195 59.2813L423.645 60.6134L423.902 58.7408L413.452 57.4087Z" fill="#2F2E41"/>
<path d="M382.929 275.842H382.929C380.724 275.84 378.61 274.993 377.05 273.488C375.491 271.983 374.614 269.942 374.611 267.814C374.611 267.814 387.872 198.366 395.45 157.662C396.923 149.747 401.231 142.583 407.622 137.424C414.012 132.265 422.078 129.438 430.41 129.437H430.41C442.343 129.437 453.788 134.013 462.226 142.158C470.664 150.303 475.405 161.349 475.405 172.868V186.583C475.405 210.256 465.662 232.959 448.319 249.699C430.977 266.438 407.455 275.842 382.929 275.842Z" fill="#2F2E41"/>
<path d="M445.895 268.89C445.384 269.968 444.56 270.879 443.524 271.516C442.488 272.152 441.283 272.486 440.055 272.477L425.612 272.356C424.777 272.349 423.952 272.183 423.183 271.868C422.414 271.553 421.717 271.095 421.131 270.52C420.546 269.945 420.083 269.264 419.77 268.517C419.457 267.769 419.3 266.969 419.307 266.163L420.288 156.945C420.303 155.223 420.669 153.52 421.365 151.935C422.062 150.349 423.075 148.911 424.347 147.704C425.619 146.496 427.125 145.542 428.78 144.897C430.434 144.251 432.204 143.927 433.988 143.942C435.772 143.957 437.536 144.311 439.178 144.984C440.821 145.657 442.309 146.636 443.56 147.864C444.81 149.093 445.797 150.548 446.465 152.145C447.133 153.742 447.468 155.45 447.452 157.172L446.471 266.39C446.464 267.254 446.268 268.106 445.895 268.89Z" fill="#089262"/>
<path d="M452.276 239.734C451.764 240.811 450.94 241.723 449.904 242.359C448.868 242.995 447.664 243.329 446.436 243.32L421.766 243.113C420.08 243.097 418.469 242.436 417.287 241.276C416.105 240.115 415.449 238.549 415.461 236.921L416.267 147.237C416.274 146.431 416.446 145.634 416.772 144.892C417.099 144.149 417.573 143.477 418.169 142.911C418.765 142.346 419.47 141.9 420.244 141.598C421.019 141.296 421.847 141.144 422.683 141.151L447.352 141.357C448.187 141.364 449.013 141.53 449.782 141.845C450.551 142.16 451.248 142.618 451.833 143.193C452.419 143.768 452.881 144.449 453.194 145.196C453.507 145.944 453.664 146.744 453.657 147.55L452.851 237.234C452.845 238.097 452.648 238.949 452.276 239.734Z" fill="#2F2E41"/>
<path d="M411.009 40.7105C403.231 41.9846 394.548 43.4415 387.137 39.9605C381.304 37.2204 377.293 31.7481 378.714 25.3182C381.542 12.5218 396.719 6.8644 408.916 8.0061C416.09 8.65252 422.835 11.5881 428.086 16.3489C428.335 16.5767 428.647 16.73 428.985 16.7902C429.322 16.8505 429.67 16.8152 429.987 16.6885C430.304 16.5618 430.576 16.3491 430.77 16.0763C430.965 15.8035 431.073 15.4822 431.082 15.1512C431.03 10.4293 434.69 6.4891 439.026 4.71042C444.456 2.48344 450.765 3.27927 456.346 4.471C471.614 7.75775 485.481 15.4609 496.095 26.5526C506.71 37.6443 513.567 51.5968 515.753 66.5482C517.307 77.0739 516.474 87.7998 513.31 97.9839C510.35 107.372 504.883 116.807 495.881 121.915C487.769 126.517 475.974 127.702 468.489 121.245C462.493 116.073 459.79 106.404 464.709 99.7125C466.159 97.772 468.125 96.2463 470.4 95.297C472.675 94.3477 475.173 94.0102 477.63 94.3204C479.955 94.675 482.124 95.6657 483.883 97.175C485.641 98.6844 486.913 100.649 487.549 102.835C488.016 104.935 487.872 107.118 487.133 109.144C486.395 111.169 485.09 112.958 483.363 114.312C482.072 115.207 480.606 115.839 479.054 116.17C477.502 116.501 475.896 116.523 474.335 116.235C472.774 115.947 471.289 115.356 469.973 114.497C468.656 113.637 467.534 112.528 466.676 111.237C465.484 109.391 462.446 111.09 463.646 112.947C465.022 115.026 466.909 116.745 469.139 117.952C471.368 119.159 473.871 119.817 476.427 119.867C478.974 119.912 481.488 119.302 483.711 118.101C485.934 116.899 487.786 115.149 489.077 113.029C490.462 110.866 491.232 108.389 491.31 105.847C491.388 103.305 490.771 100.788 489.521 98.5498C488.154 96.2669 486.207 94.358 483.864 93.0034C481.52 91.6488 478.857 90.8933 476.127 90.8083C473.295 90.7868 470.5 91.4306 467.983 92.684C465.466 93.9373 463.302 95.7628 461.679 98.0029C459.052 101.879 458.083 106.587 458.975 111.138C459.766 115.766 462.088 120.023 465.592 123.273C469.649 126.818 474.871 128.868 480.34 129.063C492.239 129.718 502.862 123.101 509.425 113.903C516.235 104.36 519.28 92.3837 519.894 80.9342C520.519 69.2644 518.409 57.6088 513.721 46.835C509.034 36.0611 501.889 26.4466 492.819 18.7069C484.192 11.419 474.074 5.96262 463.122 2.69168C452.281 -0.51375 437.145 -2.85026 429.824 7.8415C428.334 10.0066 427.55 12.5524 427.572 15.1513L430.568 13.9537C419.976 4.18371 403.324 1.71498 390.098 7.72049C383.455 10.7368 377.695 16.3458 375.63 23.2616C373.488 30.4373 376.586 37.4801 382.94 41.5497C391.588 47.0882 402.312 45.5546 411.941 43.977C414.163 43.613 413.221 40.3481 411.009 40.7106V40.7105Z" fill="#2F2E41"/>
<path d="M301.267 248.923H17.0897C12.5588 248.918 8.21497 247.179 5.01115 244.086C1.80734 240.994 0.00516929 236.801 0 232.428V68.4168C0.00516929 64.0434 1.80734 59.8507 5.01115 56.7583C8.21497 53.6659 12.5588 51.9264 17.0897 51.9214H301.267C305.797 51.9264 310.141 53.6659 313.345 56.7583C316.549 59.8507 318.351 64.0434 318.356 68.4168V232.428C318.351 236.801 316.549 240.994 313.345 244.086C310.141 247.179 305.797 248.918 301.267 248.923ZM17.0897 54.7492C13.3355 54.7533 9.73638 56.1946 7.0818 58.7569C4.42721 61.3192 2.93397 64.7932 2.92966 68.4168V232.428C2.93397 236.051 4.42721 239.525 7.0818 242.088C9.73638 244.65 13.3355 246.091 17.0897 246.095H301.267C305.021 246.091 308.62 244.65 311.274 242.088C313.929 239.525 315.422 236.051 315.427 232.428V68.4168C315.422 64.7932 313.929 61.3192 311.274 58.7569C308.62 56.1946 305.021 54.7533 301.267 54.7492H17.0897Z" fill="#3F3D56"/>
<path d="M55.1752 90.5677C52.7609 90.5677 50.4008 89.8766 48.3934 88.582C46.386 87.2873 44.8214 85.4471 43.8975 83.2942C42.9736 81.1412 42.7318 78.7722 43.2028 76.4866C43.6738 74.2011 44.8364 72.1016 46.5436 70.4538C48.2508 68.806 50.4258 67.6839 52.7937 67.2293C55.1616 66.7746 57.616 67.008 59.8466 67.8997C62.0771 68.7915 63.9836 70.3017 65.3249 72.2393C66.6662 74.1769 67.3821 76.4549 67.3821 78.7853C67.3785 81.9091 66.0912 84.9039 63.8028 87.1128C61.5143 89.3217 58.4115 90.5642 55.1752 90.5677ZM55.1752 69.8306C53.3403 69.8306 51.5466 70.3558 50.021 71.3398C48.4954 72.3237 47.3063 73.7222 46.6041 75.3585C45.9019 76.9947 45.7182 78.7952 46.0762 80.5322C46.4341 82.2693 47.3177 83.8648 48.6152 85.1172C49.9126 86.3695 51.5657 87.2223 53.3653 87.5678C55.1649 87.9134 57.0302 87.736 58.7254 87.0583C60.4206 86.3805 61.8695 85.2328 62.8889 83.7602C63.9083 82.2876 64.4524 80.5563 64.4524 78.7853C64.4496 76.4112 63.4713 74.1351 61.7321 72.4564C59.9929 70.7776 57.6348 69.8333 55.1752 69.8306Z" fill="#3F3D56"/>
<path d="M261.228 90.5677C258.814 90.5677 256.454 89.8766 254.446 88.582C252.439 87.2873 250.874 85.4471 249.95 83.2942C249.026 81.1412 248.785 78.7722 249.256 76.4866C249.727 74.2011 250.889 72.1016 252.596 70.4538C254.303 68.806 256.479 67.6839 258.846 67.2293C261.214 66.7746 263.669 67.008 265.899 67.8997C268.13 68.7915 270.036 70.3017 271.378 72.2393C272.719 74.1769 273.435 76.4549 273.435 78.7853C273.431 81.9091 272.144 84.9039 269.855 87.1128C267.567 89.3217 264.464 90.5642 261.228 90.5677ZM261.228 69.8306C259.393 69.8306 257.599 70.3558 256.074 71.3398C254.548 72.3237 253.359 73.7222 252.657 75.3585C251.955 76.9947 251.771 78.7952 252.129 80.5322C252.487 82.2693 253.37 83.8648 254.668 85.1172C255.965 86.3695 257.618 87.2223 259.418 87.5678C261.218 87.9134 263.083 87.736 264.778 87.0583C266.473 86.3805 267.922 85.2328 268.942 83.7602C269.961 82.2876 270.505 80.5563 270.505 78.7853C270.502 76.4112 269.524 74.1351 267.785 72.4564C266.046 70.7776 263.688 69.8333 261.228 69.8306Z" fill="#3F3D56"/>
<path d="M83.9835 162.205H31.2497C29.049 162.202 26.9392 161.357 25.3831 159.855C23.827 158.353 22.9516 156.317 22.949 154.193V124.03C22.9516 121.906 23.827 119.869 25.3831 118.367C26.9392 116.865 29.049 116.02 31.2497 116.018H83.9835C86.1842 116.02 88.294 116.865 89.8501 118.367C91.4062 119.869 92.2816 121.906 92.2842 124.03V154.193C92.2816 156.317 91.4062 158.353 89.8501 159.855C88.294 161.357 86.1842 162.202 83.9835 162.205Z" fill="#E6E6E6"/>
<path d="M185.545 162.205H132.811C130.611 162.202 128.501 161.357 126.945 159.855C125.388 158.353 124.513 156.317 124.51 154.193V124.03C124.513 121.906 125.388 119.869 126.945 118.367C128.501 116.865 130.611 116.02 132.811 116.018H185.545C187.746 116.02 189.856 116.865 191.412 118.367C192.968 119.869 193.843 121.906 193.846 124.03V154.193C193.843 156.317 192.968 158.353 191.412 159.855C189.856 161.357 187.746 162.202 185.545 162.205Z" fill="#E6E6E6"/>
<path d="M234.373 116.96C232.431 116.962 230.569 117.708 229.196 119.033C227.823 120.358 227.051 122.155 227.049 124.03V154.193C227.051 156.067 227.823 157.864 229.196 159.189C230.569 160.515 232.431 161.26 234.373 161.262H287.107C289.048 161.26 290.91 160.515 292.283 159.189C293.656 157.864 294.429 156.067 294.431 154.193V124.03C294.429 122.155 293.656 120.358 292.283 119.033C290.91 117.708 289.048 116.962 287.107 116.96H234.373Z" fill="#E6E6E6"/>
<path d="M84.4718 222.531H31.738C29.5373 222.528 27.4275 221.683 25.8714 220.181C24.3152 218.679 23.4399 216.643 23.4373 214.519V184.356C23.4399 182.232 24.3153 180.195 25.8714 178.693C27.4275 177.191 29.5373 176.346 31.738 176.344H84.4718C86.6725 176.346 88.7823 177.191 90.3384 178.693C91.8945 180.195 92.7699 182.232 92.7725 184.356V214.519C92.7699 216.643 91.8945 218.679 90.3384 220.181C88.7823 221.683 86.6725 222.528 84.4718 222.531Z" fill="#E6E6E6"/>
<path d="M186.033 222.531H133.299C131.099 222.528 128.989 221.683 127.433 220.181C125.877 218.679 125.001 216.643 124.999 214.519V184.356C125.001 182.232 125.877 180.195 127.433 178.693C128.989 177.191 131.099 176.346 133.299 176.344H186.033C188.234 176.346 190.344 177.191 191.9 178.693C193.456 180.195 194.331 182.232 194.334 184.356V214.519C194.331 216.643 193.456 218.679 191.9 220.181C190.344 221.683 188.234 222.528 186.033 222.531Z" fill="#E6E6E6"/>
<path d="M287.595 222.531H234.861C232.66 222.528 230.551 221.683 228.994 220.181C227.438 218.679 226.563 216.643 226.56 214.519V184.356C226.563 182.232 227.438 180.195 228.994 178.693C230.551 177.191 232.66 176.346 234.861 176.344H287.595C289.796 176.346 291.905 177.191 293.461 178.693C295.018 180.195 295.893 182.232 295.896 184.356V214.519C295.893 216.643 295.018 218.679 293.461 220.181C291.905 221.683 289.796 222.528 287.595 222.531Z" fill="#E6E6E6"/>
<path d="M55.1753 82.0843C54.2691 82.0833 53.4004 81.7354 52.7596 81.1169C52.1189 80.4984 51.7584 79.6599 51.7573 78.7853V31.6556C51.7573 30.7807 52.1174 29.9415 52.7584 29.3228C53.3994 28.7041 54.2688 28.3566 55.1753 28.3566C56.0818 28.3566 56.9511 28.7041 57.5921 29.3228C58.2331 29.9415 58.5932 30.7807 58.5932 31.6556V78.7853C58.5921 79.6599 58.2316 80.4984 57.5909 81.1169C56.9501 81.7354 56.0814 82.0833 55.1753 82.0843Z" fill="#3F3D56"/>
<path d="M261.228 82.0843C260.322 82.0833 259.453 81.7354 258.812 81.1169C258.172 80.4984 257.811 79.6599 257.81 78.7853V31.6556C257.81 30.7807 258.17 29.9415 258.811 29.3228C259.452 28.7041 260.322 28.3566 261.228 28.3566C262.134 28.3566 263.004 28.7041 263.645 29.3228C264.286 29.9415 264.646 30.7807 264.646 31.6556V78.7853C264.645 79.6599 264.284 80.4984 263.644 81.1169C263.003 81.7354 262.134 82.0833 261.228 82.0843Z" fill="#3F3D56"/>
<path d="M55.6231 151.338C54.1852 151.34 52.7856 150.891 51.6353 150.059L51.564 150.007L36.5439 138.917C35.139 137.877 34.2195 136.341 33.9877 134.647C33.7559 132.953 34.2307 131.24 35.3078 129.884C36.3849 128.528 37.9759 127.64 39.7309 127.416C41.4859 127.193 43.2612 127.651 44.6661 128.691L54.3949 135.892L77.3845 106.942C77.9176 106.271 78.5824 105.708 79.341 105.284C80.0996 104.861 80.9372 104.587 81.8058 104.476C82.6744 104.365 83.5572 104.421 84.4036 104.639C85.25 104.858 86.0436 105.235 86.7389 105.749L86.7409 105.751L86.5982 105.942L86.7447 105.751C88.1476 106.792 89.0654 108.327 89.2968 110.02C89.5281 111.713 89.0542 113.426 87.9789 114.782L60.938 148.818C60.3124 149.602 59.5081 150.236 58.5874 150.672C57.6666 151.108 56.6543 151.333 55.6289 151.33L55.6231 151.338Z" fill="#089262"/>
<path d="M160.114 210.721C158.676 210.723 157.277 210.274 156.126 209.442L156.055 209.39L141.035 198.3C139.63 197.26 138.711 195.725 138.479 194.031C138.247 192.337 138.722 190.623 139.799 189.267C140.876 187.911 142.467 187.024 144.222 186.8C145.977 186.576 147.752 187.034 149.157 188.074L158.886 195.275L181.876 166.325C182.409 165.654 183.074 165.091 183.832 164.668C184.591 164.245 185.428 163.97 186.297 163.859C187.166 163.748 188.048 163.804 188.895 164.022C189.741 164.241 190.535 164.618 191.23 165.133L191.232 165.134L191.089 165.325L191.236 165.134C192.639 166.175 193.557 167.71 193.788 169.403C194.019 171.096 193.545 172.809 192.47 174.165L165.429 208.201C164.804 208.985 163.999 209.62 163.079 210.056C162.158 210.491 161.146 210.716 160.12 210.714L160.114 210.721Z" fill="#089262"/>
<path d="M258.746 151.338C257.308 151.34 255.909 150.891 254.758 150.059L254.687 150.007L239.667 138.917C238.262 137.877 237.343 136.341 237.111 134.647C236.879 132.953 237.354 131.24 238.431 129.884C239.508 128.528 241.099 127.64 242.854 127.416C244.609 127.193 246.384 127.651 247.789 128.691L257.518 135.892L280.508 106.942C281.041 106.271 281.705 105.708 282.464 105.284C283.223 104.861 284.06 104.587 284.929 104.476C285.797 104.365 286.68 104.421 287.527 104.639C288.373 104.858 289.167 105.235 289.862 105.749L289.864 105.751L289.721 105.942L289.868 105.751C291.271 106.792 292.188 108.327 292.42 110.02C292.651 111.713 292.177 113.426 291.102 114.782L264.061 148.818C263.435 149.602 262.631 150.236 261.71 150.672C260.79 151.108 259.777 151.333 258.752 151.33L258.746 151.338Z" fill="#089262"/>
</g>
<defs>
<clipPath id="clip0_36_8">
<rect width="520" height="367" fill="white"/>
</clipPath>
</defs>
</svg>
